<svg xmlns="http://www.w3.org/2000/svg" version="1.1" xmlns:xlink="http://www.w3.org/1999/xlink" xmlns:svgjs="http://svgjs.dev/svgjs" width="1000" height="1000" viewBox="0 0 1000 1000"><rect width="1000" height="1000" fill="#ffffff"></rect><g transform="matrix(0.7,0,0,0.7,149.57575757575756,282.1265587044535)"><svg viewBox="0 0 396 247" data-background-color="#ffffff" preserveAspectRatio="xMidYMid meet" height="623" width="1000" xmlns="http://www.w3.org/2000/svg" xmlns:xlink="http://www.w3.org/1999/xlink"><g id="tight-bounds" transform="matrix(1,0,0,1,0.2400000000000091,-0.09999999999999432)"><svg viewBox="0 0 395.52 247.2" height="247.2" width="395.52"><g><svg></svg></g><g><svg viewBox="0 0 395.52 247.2" height="247.2" width="395.52"><g transform="matrix(1,0,0,1,75.54432,57.16479606675898)"><svg viewBox="0 0 244.43135999999998 132.87040786648203" height="132.87040786648203" width="244.43135999999998"><g><svg viewBox="0 0 244.43135999999998 132.87040786648203" height="132.87040786648203" width="244.43135999999998"><g><svg viewBox="0 0 244.43135999999998 132.87040786648203" height="132.87040786648203" width="244.43135999999998"><g><svg viewBox="0 0 244.43135999999998 132.87040786648203" height="132.87040786648203" width="244.43135999999998"><g><svg viewBox="0 0 244.43135999999998 132.87040786648203" height="132.87040786648203" width="244.43135999999998"><g><svg viewBox="0 0 244.43135999999998 80.62839999999998" height="80.62839999999998" width="244.43135999999998"><g transform="matrix(1,0,0,1,0,0)"><svg width="244.43135999999998" viewBox="3.25 -33 100.80000305175781 33.25" height="80.62839999999998" data-palette-color="#010c80"><path d="M13.7 0L3.25 0 3.25-1.25 7.15-2.1 7.15-30.9 3.25-31.75 3.25-33 9.8-33 30.15-5.4 30.15-30.9 25.85-31.75 25.85-33 35.95-33 35.95-31.75 32.05-30.9 32.05 0.25 30.95 0.25 9.15-28.8 9.15-2.25 13.7-1.25 13.7 0ZM53.95 0L42.45 0 42.45-1.25 46.45-2.1 46.45-30.9 42.45-31.75 42.45-33 52.45-33Q58.35-33 61.92-30.85 65.5-28.7 65.5-24.05L65.5-24.05Q65.5-21.3 63.77-19.18 62.05-17.05 58.97-15.8 55.9-14.55 51.8-14.55L51.8-14.55 49.45-14.55 49.45-2.1 53.95-1.25 53.95 0ZM52.85-31.25L49.45-31.25 49.45-16.3 53.2-16.3Q55.8-16.3 57.82-17.23 59.85-18.15 61-19.83 62.15-21.5 62.15-23.65L62.15-23.65Q62.15-27.65 59.62-29.45 57.1-31.25 52.85-31.25L52.85-31.25ZM81.8 0L71.35 0 71.35-1.25 75.25-2.1 75.25-30.9 71.35-31.75 71.35-33 77.9-33 98.25-5.4 98.25-30.9 93.95-31.75 93.95-33 104.05-33 104.05-31.75 100.15-30.9 100.15 0.25 99.05 0.25 77.25-28.8 77.25-2.25 81.8-1.25 81.8 0Z" opacity="1" transform="matrix(1,0,0,1,0,0)" fill="#000000" class="undefined-text-0" data-fill-palette-color="primary" id="text-0"></path></svg></g></svg></g><g transform="matrix(1,0,0,1,0,99.66283015839998)"><svg viewBox="0 0 244.43135999999998 33.20757770808203" height="33.20757770808203" width="244.43135999999998"><g transform="matrix(1,0,0,1,0,0)"><svg width="244.43135999999998" viewBox="4.949999809265137 -35.04999923706055 331.5699768066406 45.04999923706055" height="33.20757770808203" data-palette-color="#010c80"><path d="M9.25-0.05L9.25-1.5 28.95-1.5 28.95-31.45 17.7-7.35 6.45-31.5 6.45 0 4.95-0.05 4.95-35.05 6.45-35.05 17.7-10.9 28.95-35 30.45-35.05 30.45 0 9.25-0.05ZM54.75-27.48Q53.05-28 50.55-28 48.05-28 46.35-27.48 44.65-26.95 43.22-25.53 41.8-24.1 41.1-21.38 40.4-18.65 40.4-14.5 40.4-10.35 41.1-7.63 41.8-4.9 43.22-3.48 44.65-2.05 46.35-1.53 48.05-1 50.55-1 53.05-1 54.75-1.53 56.45-2.05 57.87-3.48 59.3-4.9 60-7.63 60.7-10.35 60.7-14.5 60.7-18.65 60-21.38 59.3-24.1 57.87-25.53 56.45-26.95 54.75-27.48ZM59.5-3.05Q56.8 0.5 50.55 0.5 44.3 0.5 41.6-3.05 38.9-6.6 38.9-14.5 38.9-22.4 41.6-25.95 44.3-29.5 50.55-29.5 56.8-29.5 59.5-25.95 62.2-22.4 62.2-14.5 62.2-6.6 59.5-3.05ZM74.25 0L74.25 0 70.45 0 70.45-29 74.25-29Q81.65-29 86.05-25.1 90.45-21.2 90.45-14.5 90.45-7.8 86.05-3.9 81.65 0 74.25 0ZM71.95-1.5L74.25-1.5Q81-1.5 84.97-4.95 88.95-8.4 88.95-14.5 88.95-20.6 84.97-24.05 81-27.5 74.25-27.5L74.25-27.5 71.95-27.5 71.95-1.5ZM116.39-3.95L117.49-2.95Q114.74 0.5 108.49 0.5 102.24 0.5 99.54-3.05 96.84-6.6 96.84-14.5 96.84-22.4 99.54-25.95 102.24-29.5 108.49-29.5L108.49-29.5Q115.74-29.5 118.34-24.75L118.34-24.75 106.09-14.5 103.74-14.5 116.39-25.05Q114.19-28 108.49-28L108.49-28Q105.99-28 104.29-27.48 102.59-26.95 101.17-25.53 99.74-24.1 99.04-21.38 98.34-18.65 98.34-14.5 98.34-10.35 99.04-7.63 99.74-4.9 101.17-3.48 102.59-2.05 104.29-1.53 105.99-1 108.49-1L108.49-1Q114.19-1 116.39-3.95L116.39-3.95ZM137.69-14.55L137.69-14.55 144.49 0 142.84 0 135.84-15Q135.94-15.05 136.72-15.43 137.49-15.8 137.79-15.98 138.09-16.15 138.79-16.6 139.49-17.05 139.84-17.48 140.19-17.9 140.62-18.48 141.04-19.05 141.24-19.78 141.44-20.5 141.44-21.35L141.44-21.35Q141.44-24.5 138.44-26 135.44-27.5 130.99-27.5L130.99-27.5 126.99-27.5 126.99 0 125.49 0 125.49-29 130.99-29Q136.89-29 139.92-26.95 142.94-24.9 142.94-21.35L142.94-21.35Q142.94-19.05 141.39-17.28 139.84-15.5 137.69-14.55ZM152.79 0L151.29 0 151.29-29 152.79-29 169.09-2.75 169.09-29 170.59-29 170.59 0 169.09 0 152.79-26.3 152.79 0ZM199.83 0L199.83 0 195.03 0 195.03-35 199.83-35Q207.03-35 212.03-29.7 217.03-24.4 217.03-17.5 217.03-10.6 212.03-5.3 207.03 0 199.83 0ZM196.53-1.5L199.83-1.5Q206.38-1.5 210.96-6.33 215.53-11.15 215.53-17.5 215.53-23.85 210.96-28.68 206.38-33.5 199.83-33.5L199.83-33.5 196.53-33.5 196.53-1.5ZM242.78-3.95L243.88-2.95Q241.13 0.5 234.88 0.5 228.63 0.5 225.93-3.05 223.23-6.6 223.23-14.5 223.23-22.4 225.93-25.95 228.63-29.5 234.88-29.5L234.88-29.5Q242.13-29.5 244.73-24.75L244.73-24.75 232.48-14.5 230.13-14.5 242.78-25.05Q240.58-28 234.88-28L234.88-28Q232.38-28 230.68-27.48 228.98-26.95 227.56-25.53 226.13-24.1 225.43-21.38 224.73-18.65 224.73-14.5 224.73-10.35 225.43-7.63 226.13-4.9 227.56-3.48 228.98-2.05 230.68-1.53 232.38-1 234.88-1L234.88-1Q240.58-1 242.78-3.95L242.78-3.95ZM259.53-29.6L259.53-29.6Q265.73-29.6 268.33-26.85L268.33-26.85 267.33-25.75Q264.93-28.1 259.73-28.1L259.73-28.1Q251.93-28.1 251.93-21.9L251.93-21.9Q251.93-19.5 253.83-18.07 255.73-16.65 258.45-15.9 261.18-15.15 263.9-14.33 266.63-13.5 268.53-11.68 270.43-9.85 270.43-6.9L270.43-6.9Q270.43-3.45 267.58-1.4 264.73 0.65 259.33 0.65L259.33 0.65Q256.68 0.65 254.1-0.05 251.53-0.75 250.28-2.1L250.28-2.1 251.28-3.2Q253.83-0.85 259.13-0.85L259.13-0.85Q263.98-0.85 266.45-2.65 268.93-4.45 268.93-6.85L268.93-6.85Q268.93-9.35 267.03-10.9 265.13-12.45 262.4-13.23 259.68-14 256.95-14.83 254.23-15.65 252.33-17.4 250.43-19.15 250.43-22L250.43-22Q250.43-25.85 253-27.73 255.58-29.6 259.53-29.6ZM277.73 0L277.73-29 279.23-29 279.23 0 277.73 0ZM302.72-19.5L300.37-19.5 307.02-25.05Q304.82-28 299.12-28L299.12-28Q296.62-28 294.92-27.48 293.22-26.95 291.8-25.53 290.37-24.1 289.67-21.38 288.97-18.65 288.97-14.5 288.97-10.35 289.67-7.63 290.37-4.9 291.8-3.48 293.22-2.05 294.92-1.53 296.62-1 299.12-1L299.12-1Q304.77-1 306.97-3.9L306.97-3.9 306.97-12.75 308.47-12.75 308.47 0.45Q308.47 10 299.72 10L299.72 10 293.87 10 293.87 8.5 299.72 8.5Q303.47 8.5 305.22 6.53 306.97 4.55 306.97-1L306.97-1 306.97-1.75Q304.27 0.5 299.12 0.5L299.12 0.5Q292.87 0.5 290.17-3.05 287.47-6.6 287.47-14.5 287.47-22.4 290.17-25.95 292.87-29.5 299.12-29.5L299.12-29.5Q306.37-29.5 308.97-24.75L308.97-24.75 302.72-19.5ZM318.72 0L317.22 0 317.22-29 318.72-29 335.02-2.75 335.02-29 336.52-29 336.52 0 335.02 0 318.72-26.3 318.72 0Z" opacity="1" transform="matrix(1,0,0,1,0,0)" fill="#000000" class="undefined-text-1" data-fill-palette-color="secondary" id="text-1"></path></svg></g></svg></g></svg></g></svg></g></svg></g></svg></g></svg></g><g><path d="M0 123.6c0-68.262 55.338-123.6 123.6-123.6 39.627 0 74.898 18.648 97.517 47.648l-4.654 0c-22-26.866-55.429-44.012-92.863-44.012-66.255 0-119.964 53.71-119.964 119.964 0 66.255 53.71 119.964 119.964 119.964 37.434 0 70.863-17.146 92.863-44.012h4.654c-22.619 28.999-57.89 47.648-97.517 47.648-68.262 0-123.6-55.338-123.6-123.6z" fill="#010c80" stroke="transparent" data-fill-palette-color="tertiary"></path></g></svg></g><defs></defs></svg><rect width="395.52" height="247.2" fill="none" stroke="none" visibility="hidden"></rect></g></svg></g></svg>